<svg width="134" height="106" xmlns="http://www.w3.org/2000/svg">
  <g fill="none" fill-rule="evenodd">
    <path fill="#FFF" d="M0 0h134v106H0z" />
    <g fill="#5F6061">
      <path
        d="M29.696 79.89H28.22v-5.427c0-1.388-.73-2.376-2.189-2.376-1.337 0-2.345 1.006-2.345 2.341v5.462h-1.458v-12.9h1.458v4.872c.61-.693 1.512-1.127 2.554-1.127 2.206 0 3.456 1.56 3.456 3.78v5.375zM40.5 75.451c0 2.567-1.946 4.665-4.498 4.665-2.536 0-4.5-2.098-4.5-4.665 0-2.601 1.964-4.716 4.5-4.716 2.552 0 4.497 2.115 4.497 4.716m-1.476 0c0-1.82-1.355-3.311-3.021-3.311-1.652 0-3.005 1.491-3.005 3.311 0 1.787 1.353 3.242 3.005 3.242 1.666 0 3.021-1.455 3.021-3.242M50.748 79.474c0 2.86-1.842 4.802-4.603 4.802-2.102 0-3.752-1.127-4.22-2.947h1.562c.59 1.335 2.015 1.525 2.658 1.525 2.31 0 3.143-1.768 3.143-3.38v-.85c-.694.918-1.77 1.492-3.057 1.492-2.465 0-4.463-2.012-4.463-4.682 0-2.688 2.014-4.698 4.499-4.698 2.536 0 4.48 2.063 4.48 4.698v4.04zm-4.481-7.386c-1.668 0-3.022 1.473-3.022 3.346 0 1.872 1.354 3.312 3.022 3.312 1.649 0 3.021-1.473 3.021-3.312 0-1.855-1.389-3.346-3.021-3.346zM61.204 77.116c-.625 1.907-2.154 2.981-4.22 2.981-2.572 0-4.585-2.044-4.585-4.663 0-2.583 2.013-4.7 4.497-4.7 2.31 0 4.533 1.909 4.516 5.082h-7.52c.191 1.855 1.615 2.947 3.091 2.947 1.269 0 2.17-.607 2.658-1.647h1.563zm-1.425-2.618c-.363-1.457-1.58-2.429-2.883-2.429-1.234 0-2.536.904-2.918 2.429h5.801zM66.52 80.115c-2.171 0-3.752-1.161-3.996-3.051h1.495c.19 1.04 1.214 1.681 2.5 1.681 1.39 0 2.24-.676 2.24-1.456 0-.623-.243-1.092-2.43-1.387-2.172-.312-3.49-.831-3.49-2.513 0-1.283 1.11-2.653 3.506-2.653 2.067 0 3.456 1.04 3.649 2.791h-1.495c-.208-.953-1.058-1.44-2.154-1.44-1.18 0-2.031.555-2.031 1.248 0 .642.504.867 2.257 1.145 1.98.312 3.613.694 3.613 2.722 0 1.787-1.528 2.913-3.665 2.913M75.846 80.098c-2.465 0-4.48-2.08-4.48-4.665 0-2.583 2.015-4.698 4.48-4.698 1.997 0 3.562 1.18 4.17 2.983h-1.582c-.504-.971-1.424-1.578-2.588-1.578-1.649 0-3.004 1.49-3.004 3.293 0 1.804 1.355 3.26 3.004 3.26 1.181 0 2.102-.607 2.588-1.577h1.581c-.59 1.804-2.172 2.982-4.169 2.982M89.273 79.89h-1.476v-5.427c0-1.388-.73-2.376-2.189-2.376-1.337 0-2.346 1.006-2.346 2.341v5.462h-1.457v-12.9h1.457v4.872c.61-.693 1.513-1.127 2.555-1.127 2.205 0 3.456 1.56 3.456 3.78v5.375zM100.076 75.451c0 2.567-1.945 4.665-4.498 4.665-2.536 0-4.5-2.098-4.5-4.665 0-2.601 1.964-4.716 4.5-4.716 2.553 0 4.498 2.115 4.498 4.716m-1.476 0c0-1.82-1.356-3.311-3.022-3.311-1.65 0-3.005 1.491-3.005 3.311 0 1.787 1.354 3.242 3.005 3.242 1.666 0 3.022-1.455 3.022-3.242M110.341 75.451c0 2.567-1.945 4.665-4.498 4.665-2.535 0-4.499-2.098-4.499-4.665 0-2.601 1.964-4.716 4.5-4.716 2.552 0 4.497 2.115 4.497 4.716m-1.476 0c0-1.82-1.355-3.311-3.022-3.311-1.65 0-3.005 1.491-3.005 3.311 0 1.787 1.354 3.242 3.005 3.242 1.667 0 3.022-1.455 3.022-3.242M112.062 66.99h1.459v9.588c0 1.579.973 1.977 2.084 1.925v1.387c-2.101.243-3.543-.989-3.543-3.26v-9.64z" />
    </g>
    <path
      d="M48.7 64.045h-7.584v-17.26c0-1.723-.574-5.62-5.514-5.62-3.39 0-5.745 2.293-5.745 5.62v17.26h-7.642V21.378h7.642V36.06c1.895-1.434 4.194-2.294 6.778-2.294 7.24 0 12.064 5.218 12.064 13.018v17.261z"
      fill="#007BBF" />
    <path
      d="M68.116 64.045c-8.272 0-14.476-6.653-14.476-14.91 0-8.372 6.26-15.369 15.222-15.369 8.906 0 15.167 6.997 15.167 15.598v14.681h-7.583V49.364c0-4.53-3.39-8.258-7.584-8.258-4.194 0-7.582 3.614-7.582 8.03 0 4.358 3.388 7.57 7.755 7.57h4.367v7.34h-5.286z"
      fill="#01ABC4" />
    <path
      d="M102.7 64.734c-7.527 0-13.098-3.957-14.018-10.323h7.698c1.034 2.523 4.079 3.441 6.32 3.441 3.044 0 5.342-.918 5.342-2.638 0-1.663-1.033-2.352-6.204-3.155-5.286-.802-12.351-2.235-12.351-8.831 0-4.645 4.078-9.462 12.638-9.462 6.778 0 11.833 3.67 12.81 9.233h-7.87c-.46-1.377-2.125-2.466-4.94-2.466-3.505 0-4.94 1.261-4.94 2.351 0 1.548 2.182 2.065 5.858 2.638 7.354 1.204 12.64 2.81 12.64 9.234 0 5.848-5.4 9.978-12.984 9.978"
      fill="#97C00E" />
  </g>
</svg>
